HIERARCHY
ROOT SpineBase
{
  OFFSET 0.000000 0.000000 0.000000
  CHANNELS 6 Xposition Yposition Zposition Zrotation Xrotation Yrotation
  JOINT SpineMid
  {
    OFFSET 0.000000 22.105166 0.000000
    CHANNELS 3 Zrotation Xrotation Yrotation
    JOINT SpineShoulder
    {
      OFFSET -0.851023 16.227456 -0.917052
      CHANNELS 3 Zrotation Xrotation Yrotation
      JOINT Neck
      {
        OFFSET -0.060341 5.358443 -0.332089
        CHANNELS 3 Zrotation Xrotation Yrotation
        JOINT Head
        {
          OFFSET -1.017811 13.713091 -1.374977
          CHANNELS 3 Zrotation Xrotation Yrotation
          End Site
          {
            OFFSET 0 0 0
          }
        }
      }
      JOINT ShoulderLeft
      {
        OFFSET -14.804101 0.135522 12.892302
        CHANNELS 3 Zrotation Xrotation Yrotation
        JOINT ElbowLeft
        {
          OFFSET -19.935910 -9.577239 2.664807
          CHANNELS 3 Zrotation Xrotation Yrotation
          JOINT WristLeft
          {
            OFFSET 16.421550 7.387852 -0.370934
            CHANNELS 3 Zrotation Xrotation Yrotation
            JOINT HandLeft
            {
              OFFSET 3.804148 0.814704 -3.416585
              CHANNELS 3 Zrotation Xrotation Yrotation
              JOINT HandTipLeft
              {
                OFFSET 3.885341 1.271433 -3.168283
                CHANNELS 3 Zrotation Xrotation Yrotation
                End Site
                {
                  OFFSET 0 0 0
                }
              }
              JOINT ThumbLeft
              {
                OFFSET -1.588220 4.899719 -2.532882
                CHANNELS 3 Zrotation Xrotation Yrotation
                End Site
                {
                  OFFSET 0 0 0
                }
              }
            }
          }
        }
      }
      JOINT ShoulderRight
      {
        OFFSET 5.395997 -14.716718 -28.065336
        CHANNELS 3 Zrotation Xrotation Yrotation
        JOINT ElbowRight
        {
          OFFSET -1.791626 22.779293 -1.419344
          CHANNELS 3 Zrotation Xrotation Yrotation
          JOINT WristRight
          {
            OFFSET 0.667756 -25.000695 -3.533514
            CHANNELS 3 Zrotation Xrotation Yrotation
            JOINT HandRight
            {
              OFFSET -1.181219 -6.185874 1.498037
              CHANNELS 3 Zrotation Xrotation Yrotation
              JOINT HandTipRight
              {
                OFFSET -0.365981 -4.023929 1.294476
                CHANNELS 3 Zrotation Xrotation Yrotation
                End Site
                {
                  OFFSET 0 0 0
                }
              }
              JOINT ThumbRight
              {
                OFFSET 1.612415 -0.554608 0.201156
                CHANNELS 3 Zrotation Xrotation Yrotation
                End Site
                {
                  OFFSET 0 0 0
                }
              }
            }
          }
        }
      }
    }
  }
  JOINT HipLeft
  {
    OFFSET -2.789056 0.494611 0.691277
    CHANNELS 3 Zrotation Xrotation Yrotation
    JOINT KneeLeft
    {
      OFFSET -30.600851 0.631514 -6.825974
      CHANNELS 3 Zrotation Xrotation Yrotation
      JOINT AnkleLeft
      {
        OFFSET 32.774318 -7.184529 14.130027
        CHANNELS 3 Zrotation Xrotation Yrotation
        JOINT FootLeft
        {
          OFFSET -6.056690 -7.994131 5.152345
          CHANNELS 3 Zrotation Xrotation Yrotation
          End Site
          {
            OFFSET 0 0 0
          }
        }
      }
    }
  }
  JOINT HipRight
  {
    OFFSET 1.461775 -1.619756 -4.034506
    CHANNELS 3 Zrotation Xrotation Yrotation
    JOINT KneeRight
    {
      OFFSET -15.731214 5.601787 -30.952678
      CHANNELS 3 Zrotation Xrotation Yrotation
      JOINT AnkleRight
      {
        OFFSET -2.719741 -19.982515 17.430042
        CHANNELS 3 Zrotation Xrotation Yrotation
        JOINT FootRight
        {
          OFFSET -5.326055 7.280772 -6.219555
          CHANNELS 3 Zrotation Xrotation Yrotation
          End Site
          {
            OFFSET 0 0 0
          }
        }
      }
    }
  }
}
MOTION
Frames: 5
Frame Time: 0.033333
94.572640 16.845289 404.605383 -0.933754 7.950618 64.876415 0.072940 1.492316 -64.569729 4.090006 -1.439971 0.201619 -5.491291 -14.759287 -1.910905 0.000000 0.000000 0.000000 -2.648962 -8.581421 2.182418 -3.219803 -0.895301 2.195148 3.733443 1.233246 -2.186433 13.892198 10.031122 0.691744 0.000000 0.000000 0.000000 0.000000 0.000000 0.000000 -16.175665 3.239420 -0.909189 12.740130 -8.187692 1.400550 -7.260524 18.690234 -5.285759 -16.118866 6.291002 -6.525906 0.000000 0.000000 0.000000 0.000000 0.000000 0.000000 -6.793659 -4.090126 -62.725769 1.273998 -1.730930 -6.866481 -0.134842 8.383940 0.263068 0.000000 0.000000 0.000000 -5.419627 -3.150085 -61.982511 -7.610304 0.263687 -10.291067 8.352383 10.656781 17.479770 0.000000 0.000000 0.000000
94.929322 16.601466 406.001099 -0.055767 5.140623 65.477439 1.699022 2.852667 -65.296663 2.914512 -2.488357 0.039484 -4.460239 -12.382460 -1.562644 0.000000 0.000000 0.000000 -1.646492 -6.680110 2.240747 -15.308505 -0.293383 0.826998 16.758287 -1.811842 13.443347 17.515160 9.576481 -13.533946 0.000000 0.000000 0.000000 0.000000 0.000000 0.000000 -15.415711 4.475728 -0.422393 12.769657 -7.831879 1.396637 -12.934977 30.044522 -6.686664 -14.684518 -0.321110 -7.863186 0.000000 0.000000 0.000000 0.000000 0.000000 0.000000 -4.627772 -2.535515 -67.503497 1.338642 -1.608505 -2.521729 -1.922281 6.983662 0.510672 0.000000 0.000000 0.000000 -3.479102 -1.368968 -62.769606 -8.667471 0.214914 -10.784687 10.108572 10.954598 18.504351 0.000000 0.000000 0.000000
95.207181 17.197670 406.570382 0.279529 4.075968 63.402537 0.793561 2.702352 -63.294941 2.580246 -1.434464 0.032284 -3.593131 -9.524044 -1.117609 0.000000 0.000000 0.000000 -0.864508 -6.005975 2.836092 -25.711248 0.171290 0.269560 28.469126 -3.507602 27.829288 13.357539 6.613511 -28.371139 0.000000 0.000000 0.000000 0.000000 0.000000 0.000000 -15.040700 5.979416 -0.021992 12.482592 -8.628118 1.371426 -18.139228 36.075463 -6.764235 -10.589972 -4.393995 -6.573332 0.000000 0.000000 0.000000 0.000000 0.000000 0.000000 -3.546902 -2.561462 -64.189880 0.342386 -0.997960 -2.133343 -3.560814 5.218627 -1.447061 0.000000 0.000000 0.000000 -3.684995 -2.119231 -61.072014 -11.446746 1.035599 -11.791316 13.137450 13.407477 21.782927 0.000000 0.000000 0.000000
94.940953 17.542642 406.204934 -0.596055 3.805640 59.870337 -0.354765 2.306993 -59.823202 3.330996 -0.799289 0.130005 -1.592878 -4.697371 -0.338657 0.000000 0.000000 0.000000 0.004394 -5.360773 3.257019 -32.616672 1.716099 -1.412808 36.024565 -5.213482 39.677099 10.174537 6.146487 -38.023465 0.000000 0.000000 0.000000 0.000000 0.000000 0.000000 -14.101222 8.189918 0.525647 11.556077 -10.646195 1.241370 -15.725559 32.598385 -6.597730 -12.176683 -1.650058 -6.785207 0.000000 0.000000 0.000000 0.000000 0.000000 0.000000 -2.571810 -3.685231 -59.187434 -0.451887 -0.614673 -2.950290 -3.691503 3.928019 -1.760209 0.000000 0.000000 0.000000 -3.338200 -3.475689 -58.271291 -14.428199 0.472601 -13.104220 18.098166 19.431933 28.699043 0.000000 0.000000 0.000000
95.184466 18.191192 406.653842 -0.561905 2.062588 54.368500 -1.486848 2.557629 -54.452356 4.153505 0.959071 0.232472 0.199017 0.137109 0.267978 0.000000 0.000000 0.000000 0.269250 -4.833205 3.472997 -33.822200 2.683526 -2.447640 38.229636 -4.017754 43.805144 3.866062 5.010009 -36.391398 0.000000 0.000000 0.000000 0.000000 0.000000 0.000000 -13.136587 10.803026 1.075717 10.250823 -12.915905 1.018881 -12.963748 29.547898 -6.453487 -11.212259 -1.910080 -5.771812 0.000000 0.000000 0.000000 0.000000 0.000000 0.000000 -0.559063 -3.584000 -55.075523 -2.231044 0.045388 -1.517427 -2.343424 1.642612 -0.277468 0.000000 0.000000 0.000000 -2.364692 -4.162822 -53.048659 -15.663490 0.329960 -12.739026 20.479761 19.824631 28.003828 0.000000 0.000000 0.000000
